<svg width="41" height="41" viewBox="0 0 41 41" fill="none" xmlns="http://www.w3.org/2000/svg">
<path d="M7.86973 3.69491C8.34435 3.14119 9.03723 2.82251 9.76652 2.82251H31.1015C31.8308 2.82251 32.5237 3.14119 32.9983 3.69491L39.5176 11.3008C40.0998 11.98 40.4198 12.845 40.4198 13.7395V14.3768C40.4198 17.6536 37.7634 20.3101 34.4865 20.3101C32.5825 20.3101 30.888 19.4132 29.8023 18.019C28.7167 19.4132 27.0222 20.3101 25.1182 20.3101C23.2142 20.3101 21.5197 19.4132 20.434 18.019C19.3483 19.4132 17.6538 20.3101 15.7498 20.3101C13.8459 20.3101 12.1514 19.4132 11.0657 18.019C9.98001 19.4132 8.2855 20.3101 6.38152 20.3101C3.10466 20.3101 0.448242 17.6536 0.448242 14.3768V13.7395C0.448242 12.845 0.768235 11.98 1.35039 11.3008L7.86973 3.69491ZM12.3148 14.3768C12.3148 16.2739 13.8527 17.8118 15.7498 17.8118C17.647 17.8118 19.1849 16.2739 19.1849 14.3768C19.1849 13.6869 19.7441 13.1277 20.434 13.1277C21.1239 13.1277 21.6831 13.6869 21.6831 14.3768C21.6831 16.2739 23.221 17.8118 25.1182 17.8118C27.0153 17.8118 28.5532 16.2739 28.5532 14.3768C28.5532 13.6869 29.1125 13.1277 29.8023 13.1277C30.4922 13.1277 31.0514 13.6869 31.0514 14.3768C31.0514 16.2739 32.5894 17.8118 34.4865 17.8118C36.3836 17.8118 37.9216 16.2739 37.9216 14.3768V13.7395C37.9216 13.4414 37.8149 13.153 37.6208 12.9266L31.1015 5.32073H9.76652L3.24718 12.9266C3.05313 13.153 2.94646 13.4414 2.94646 13.7395V14.3768C2.94646 16.2739 4.48439 17.8118 6.38152 17.8118C8.27864 17.8118 9.81657 16.2739 9.81657 14.3768C9.81657 13.6869 10.3758 13.1277 11.0657 13.1277C11.7555 13.1277 12.3148 13.6869 12.3148 14.3768ZM4.19557 21.5592C4.88544 21.5592 5.44468 22.1184 5.44468 22.8083V37.7976H7.9429V25.3065C7.9429 23.9268 9.0614 22.8083 10.4411 22.8083H17.9358C19.3155 22.8083 20.434 23.9268 20.434 25.3065V37.7976H35.4233V22.8083C35.4233 22.1184 35.9826 21.5592 36.6724 21.5592C37.3623 21.5592 37.9216 22.1184 37.9216 22.8083V37.7976H39.1707C39.8605 37.7976 40.4198 38.3568 40.4198 39.0467C40.4198 39.7366 39.8605 40.2958 39.1707 40.2958H1.69735C1.00749 40.2958 0.448242 39.7366 0.448242 39.0467C0.448242 38.3568 1.00749 37.7976 1.69735 37.7976H2.94646V22.8083C2.94646 22.1184 3.50571 21.5592 4.19557 21.5592ZM10.4411 37.7976H17.9358V25.3065H10.4411V37.7976ZM22.9322 25.3065C22.9322 23.9268 24.0507 22.8083 25.4304 22.8083H30.4269C31.8066 22.8083 32.9251 23.9268 32.9251 25.3065V32.8012C32.9251 34.1809 31.8066 35.2994 30.4269 35.2994H25.4304C24.0507 35.2994 22.9322 34.1809 22.9322 32.8012V25.3065ZM30.4269 25.3065H25.4304V32.8012H30.4269V25.3065Z" fill="white"/>
</svg>
