<svg width="121" height="122" viewBox="0 0 121 122" fill="none" xmlns="http://www.w3.org/2000/svg">
<path d="M22.3675 3.5751C23.798 1.78601 25.8863 0.756348 28.0843 0.756348H92.3855C94.5835 0.756348 96.6718 1.78601 98.1022 3.57509L117.751 28.15C119.505 30.3444 120.47 33.1393 120.47 36.0296V38.0885C120.47 48.6761 112.464 57.2591 102.588 57.2591C96.8491 57.2591 91.7421 54.3614 88.47 49.8565C85.1979 54.3614 80.0908 57.2591 74.3524 57.2591C68.614 57.2591 63.507 54.3614 60.2349 49.8565C56.9628 54.3614 51.8557 57.2591 46.1173 57.2591C40.3789 57.2591 35.2719 54.3614 31.9998 49.8565C28.7277 54.3614 23.6206 57.2591 17.8822 57.2591C8.00615 57.2591 0 48.6761 0 38.0885V36.0296C0 33.1393 0.964422 30.3444 2.71897 28.15L22.3675 3.5751ZM35.7645 38.0885C35.7645 44.2182 40.3996 49.1873 46.1173 49.1873C51.8351 49.1873 56.4702 44.2182 56.4702 38.0885C56.4702 35.8595 58.1557 34.0526 60.2349 34.0526C62.3141 34.0526 63.9996 35.8595 63.9996 38.0885C63.9996 44.2182 68.6347 49.1873 74.3524 49.1873C80.0702 49.1873 84.7053 44.2182 84.7053 38.0885C84.7053 35.8595 86.3908 34.0526 88.47 34.0526C90.5491 34.0526 92.2346 35.8595 92.2346 38.0885C92.2346 44.2182 96.8698 49.1873 102.588 49.1873C108.305 49.1873 112.94 44.2182 112.94 38.0885V36.0296C112.94 35.0662 112.619 34.1345 112.034 33.403L92.3855 8.82817H28.0843L8.43568 33.403C7.85084 34.1345 7.52936 35.0662 7.52936 36.0296V38.0885C7.52936 44.2182 12.1645 49.1873 17.8822 49.1873C23.6 49.1873 28.2351 44.2182 28.2351 38.0885C28.2351 35.8595 29.9206 34.0526 31.9998 34.0526C34.079 34.0526 35.7645 35.8595 35.7645 38.0885ZM11.294 61.295C13.3732 61.295 15.0587 63.1019 15.0587 65.3309V113.762H22.5881V73.4027C22.5881 68.9448 25.9591 65.3309 30.1174 65.3309H52.7055C56.8639 65.3309 60.2349 68.9448 60.2349 73.4027V113.762H105.411V65.3309C105.411 63.1019 107.097 61.295 109.176 61.295C111.255 61.295 112.94 63.1019 112.94 65.3309V113.762H116.705C118.784 113.762 120.47 115.569 120.47 117.798C120.47 120.027 118.784 121.834 116.705 121.834H3.76468C1.6855 121.834 0 120.027 0 117.798C0 115.569 1.6855 113.762 3.76468 113.762H7.52936V65.3309C7.52936 63.1019 9.21486 61.295 11.294 61.295ZM30.1174 113.762H52.7055V73.4027H30.1174V113.762ZM67.7642 73.4027C67.7642 68.9448 71.1352 65.3309 75.2936 65.3309H90.3523C94.5107 65.3309 97.8817 68.9448 97.8817 73.4027V97.6182C97.8817 102.076 94.5107 105.69 90.3523 105.69H75.2936C71.1352 105.69 67.7642 102.076 67.7642 97.6182V73.4027ZM90.3523 73.4027H75.2936V97.6182H90.3523V73.4027Z" fill="white"/>
</svg>
